<?xml version="1.0" encoding="UTF-8" standalone="no"?>
<!-- Created with Inkscape (http://www.inkscape.org/) -->

<svg
   xmlns:dc="http://purl.org/dc/elements/1.1/"
   xmlns:cc="http://creativecommons.org/ns#"
   xmlns:rdf="http://www.w3.org/1999/02/22-rdf-syntax-ns#"
   xmlns:svg="http://www.w3.org/2000/svg"
   xmlns="http://www.w3.org/2000/svg"
   xmlns:sodipodi="http://sodipodi.sourceforge.net/DTD/sodipodi-0.dtd"
   xmlns:inkscape="http://www.inkscape.org/namespaces/inkscape"
   version="1.1"
   width="327.59537"
   height="381.59537"
   id="svg3926"
   inkscape:version="0.48.5 r10040"
   sodipodi:docname="SIP_logo_reverse-bb.svg"
   inkscape:export-filename="C:\Users\Dan\Documents\OpenSprinkler\SIP\SIP_logo_reverse-bb.png"
   inkscape:export-xdpi="90"
   inkscape:export-ydpi="90">
  <sodipodi:namedview
     pagecolor="#ffffff"
     bordercolor="#666666"
     borderopacity="1"
     objecttolerance="10"
     gridtolerance="10"
     guidetolerance="10"
     inkscape:pageopacity="0"
     inkscape:pageshadow="2"
     inkscape:window-width="1440"
     inkscape:window-height="838"
     id="namedview3003"
     showgrid="false"
     inkscape:zoom="0.59010102"
     inkscape:cx="120.54155"
     inkscape:cy="114.94585"
     inkscape:window-x="-8"
     inkscape:window-y="-8"
     inkscape:window-maximized="1"
     inkscape:current-layer="svg3926"
     fit-margin-top="0"
     fit-margin-left="0"
     fit-margin-right="0"
     fit-margin-bottom="0" />
  <defs
     id="defs3928" />
  <metadata
     id="metadata3931">
    <rdf:RDF>
      <cc:Work
         rdf:about="">
        <dc:format>image/svg+xml</dc:format>
        <dc:type
           rdf:resource="http://purl.org/dc/dcmitype/StillImage" />
        <dc:title></dc:title>
      </cc:Work>
    </rdf:RDF>
  </metadata>
  <g
     id="layer1"
     transform="translate(-190.49918,-281.56168)">
    <g
       id="g4566">
      <path
         d="m 419.23572,359.41219 -2.1,2.4 -2.1,2.1 -2.1,2.1 -2.1,2.1 -1.8,2.1 -2.1,2.1 -2.1,1.8 -2.1,1.8 -2.1,1.8 -2.1,1.5 -2.1,1.8 -2.1,1.5 -1.8,1.2 -2.1,1.5 -1.8,1.2 -1.8,1.2 -2.1,0.9 -1.8,0.9 -1.5,0.9 -1.8,0.9 -1.8,0.3 -1.8,0.9 -1.5,0.3 -1.5,0.3 -1.8,0.3 -1.2,0 -2.7,0 -1.5,0 -1.2,-0.3 -1.2,-0.3 -1.2,-0.3 0.3,-1.2 0.3,-1.2 0.3,-1.2 0.6,-1.2 0.6,-1.2 0.9,-1.2 1.8,-2.4 2.1,-2.4 1.5,-1.2 1.2,-1.2 1.5,-0.9 1.8,-1.2 1.8,-1.2 1.8,-1.2 1.8,-0.9 2.1,-1.2 2.1,-0.9 2.1,-1.2 2.4,-0.9 2.4,-0.9 2.4,-1.2 2.7,-0.9 2.4,-0.6 2.7,-0.9 3,-0.9 2.7,-0.6 2.7,-0.9 3,-0.6 3,-0.9 3,-0.6"
         id="path3940"
         style="fill:#ffffff;stroke:#000000;stroke-width:0.30000001px;stroke-linecap:round;stroke-linejoin:round;stroke-opacity:1;stroke-dasharray:none"
         inkscape:connector-curvature="0" />
      <path
         d="m 354.43572,365.71219 0,0 -0.3,-0.3 0,-0.3 -0.3,-0.3 -0.3,-0.3 -0.6,-0.9 -0.6,-0.9 -0.9,-1.2 -0.9,-1.5 -0.9,-1.2 -1.2,-1.5 -1.2,-1.5 -2.7,-3 -3,-2.7 -1.5,-1.2 -1.5,-1.2 -1.5,-0.9 -1.8,-1.2 -1.5,-0.9 -1.5,-0.9 -1.8,-0.6 -1.5,-0.9 -1.8,-0.6 -1.5,-0.6 -3,-0.9 -1.5,-0.3 -1.2,-0.6 -1.2,-0.3 -1.2,-0.6 -1.2,-0.6 -0.9,-0.6 -0.6,-0.3 -0.6,-0.9 -0.6,-0.6 -0.3,-0.6 -0.3,-0.9 -0.3,-0.9 0,-1.5 0.3,-0.9 0.6,-1.5 0.3,-0.6 1.2,-1.2 0.6,-0.3 0.6,-0.3 0.9,-0.3 0.6,-0.3 1.5,0 0.9,0.3 0.3,0.3 0.9,0.3 0.6,0.3 0.3,0.6 0.6,0.3 0.3,0.6 0.6,1.2 0,0.9 0.3,0.6 -0.3,0.6 0,0.6 -0.3,0.6 -0.6,1.2 -0.9,0.9 -0.6,0.3 -0.3,0.3 -1.2,0.3 -1.2,0 -0.6,0 -0.6,-0.3 -0.9,-0.6 -0.9,-0.9 -0.3,-0.3 -0.3,-0.9 0,-0.6 0,-1.2 0,-0.3 0.3,-0.6 0.3,-0.6 0.3,-0.3 0.3,-0.3 0.3,-0.3 0.3,-0.3 0.6,-0.3 0.3,0 1.5,0 0.9,0.3 0.3,0 0.9,1.2 0.3,0.6 0,0.3 0,0.3 0,0.9 0,0.3 -0.3,0.3 0,0.3 -0.3,0.3 -0.3,0.3 -0.3,0.3 0,0 -0.3,0 -0.3,0.3 -0.9,0 -0.3,-0.3 -0.3,0 -0.3,0 -0.3,-0.3"
         id="path3942"
         style="fill:none;stroke:#ffffff;stroke-width:1;stroke-linecap:round;stroke-linejoin:round;stroke-miterlimit:4;stroke-opacity:1;stroke-dasharray:none"
         inkscape:connector-curvature="0" />
      <path
         d="m 358.33572,281.71219 1.8,5.7 0.9,3 0.6,2.7 0.9,2.7 0.6,3 0.6,2.7 0.6,2.7 0.6,2.7 0.3,2.4 0.3,2.7 0.3,2.4 0.3,2.4 0.3,2.4 0,8.7 -0.3,2.1 -0.3,1.8 -0.3,1.8 -0.3,1.8 -0.3,1.5 -0.6,1.5 -0.6,1.5 -0.6,1.2 -0.6,1.5 -0.9,1.2 -0.6,0.9 -0.9,0.9 -0.9,0.9 -0.9,0.9 -0.9,-0.9 -1.8,-1.8 -0.6,-0.9 -0.9,-1.2 -0.6,-1.5 -0.6,-1.2 -0.6,-1.5 -0.9,-3 -0.3,-1.8 -0.3,-1.8 -0.3,-1.8 0,-2.1 -0.3,-2.1 0,-4.2 0.3,-4.8 0.3,-2.4 0.3,-2.4 0.3,-2.7 0.6,-2.4 0.3,-2.7 0.6,-2.7 0.6,-2.7 0.6,-3 0.9,-2.7 0.6,-2.7 0.9,-3 1.8,-5.7"
         id="path3944"
         style="fill:#ffffff;stroke:#000000;stroke-width:0.30000001px;stroke-linecap:round;stroke-linejoin:round;stroke-opacity:1;stroke-dasharray:none"
         inkscape:connector-curvature="0" />
      <path
         d="m 419.23572,328.51219 -3,0.9 -3,0.6 -3,0.6 -2.7,0.9 -2.7,0.6 -3,0.9 -2.7,0.9 -2.4,0.9 -2.7,0.9 -4.8,1.8 -2.4,0.9 -2.1,1.2 -2.1,0.9 -2.1,1.2 -1.8,0.9 -1.8,1.2 -1.8,0.9 -1.8,1.2 -1.5,1.2 -1.2,1.2 -1.5,1.2 -2.1,2.4 -0.9,1.2 -0.9,1.2 -0.9,1.2 -0.6,1.2 -0.6,1.2 -0.3,1.2 -0.3,1.2 -0.3,1.2 1.2,0.3 1.2,0.3 1.2,0.3 2.7,0.3 1.5,-0.3 1.2,0 1.8,-0.3 1.5,-0.3 1.5,-0.6 1.8,-0.3 1.8,-0.9 1.8,-0.6 1.5,-0.9 1.8,-0.9 2.1,-0.9 1.8,-1.2 1.8,-1.2 2.1,-1.2 1.8,-1.5 2.1,-1.5 2.1,-1.8 2.1,-1.5 2.1,-1.8 2.1,-1.8 2.1,-1.8 2.1,-2.1 3.9,-4.2 2.1,-2.1 2.1,-2.1 2.1,-2.4"
         id="path3946"
         style="fill:#ffffff;stroke:#000000;stroke-width:0.30000001px;stroke-linecap:round;stroke-linejoin:round;stroke-opacity:1;stroke-dasharray:none"
         inkscape:connector-curvature="0" />
      <path
         d="m 346.33572,437.71219 0,-0.3 -0.3,0 -0.3,-0.3 -0.3,-0.6 -0.6,-0.3 -0.6,-0.3 -0.6,-0.6 -0.9,-0.6 -0.6,-0.6 -0.9,-0.3 -0.9,-0.9 -0.9,-0.6 -1.2,-0.6 -2.1,-1.5 -2.4,-1.5 -2.7,-1.5 -2.7,-1.2 -3,-1.5 -3,-1.2 -3.3,-1.2 -3.3,-1.2 -3.6,-0.9 -3.3,-0.9 -3.6,-0.6 -3.6,-0.6 -3.3,-0.6 -3.6,-0.3 -3.9,-0.6 -3.6,0 -3.6,-0.3 -7.2,0 -7.2,-0.3 -3.6,0 -3.3,-0.3 -3.6,-0.3 -3.3,-0.6 -0.9,-0.3 -1.2,-0.3 -1.2,-0.3 -0.9,-0.6 -0.9,-0.3 -1.2,-0.6 -0.9,-0.6 -0.6,-0.9 -0.9,-0.6 -0.9,-0.9 -0.3,-0.9 -0.9,-0.6 -0.3,-0.9 -0.6,-0.9 -0.6,-1.2 -0.3,-0.9 -0.3,-0.9 -0.3,-1.2 -0.3,-2.1 0,-2.1 0.3,-0.9 0.3,-2.1 0.3,-0.9 0.9,-1.8 0.3,-0.9 0.6,-0.9 0.6,-0.9 0.6,-0.9 0.6,-0.6 1.5,-1.2 0.9,-0.6 0.6,-0.6 0.9,-0.6 0.9,-0.3 0.9,-0.3 1.2,-0.3 0.9,-0.3 0.9,0 0.9,-0.3 1.8,0 0.9,0.3 0.9,0 0.9,0.3 0.9,0.3 0.9,0.3 0.9,0.3 0.9,0.6 0.6,0.3 1.5,1.2 0.6,0.6 0.6,0.9 0.6,0.6 0.6,0.6 0.6,0.9 0.3,0.9 0.3,0.6 0.3,0.9 0.3,0.9 0.3,0.9 0,0.6 0,0.9 0,1.8 0,0.6 -0.3,0.9 0,0.9 -0.3,0.9 -0.6,1.5 -0.6,0.6 -0.3,0.9 -0.6,0.6 -1.2,1.2 -0.6,0.6 -1.2,0.9 -0.6,0.3 -0.6,0.3 -1.5,0.6 -1.5,0.3 -0.9,0 -0.6,0.3 -0.9,0 -0.6,-0.3 -0.9,0 -0.6,0 -0.6,-0.3 -0.9,-0.3 -0.6,-0.3 -1.2,-0.3 -0.9,-0.6 -0.3,-0.3 -0.6,-0.6 -1.2,-0.9 -0.3,-0.6 -0.3,-0.6 -0.3,-0.6 -0.6,-0.6 0,-0.6 -0.3,-0.6 -0.3,-0.9 0,-0.6 0,-0.6 -0.3,-0.6 0,-0.9 0.3,-0.6 0,-0.6 0.3,-1.2 0.3,-0.6 0,-0.6 0.6,-1.2 0.6,-0.3 0.3,-0.6 0.3,-0.6 0.6,-0.3 0.3,-0.3 0.6,-0.6 0.6,-0.3 0.3,-0.3 0.6,-0.3 0.6,0 0.6,-0.3 0.6,0 0.6,-0.3 0.6,0 0.6,0 0.3,0 1.2,0 0.6,0.3 0.3,0 0.6,0.3 0.9,0.6 0.6,0 0.3,0.6 0.6,0.3 0.9,0.9 0.9,1.5 0.6,1.2 0,0.6 0,0.3 0.3,0.6 0,0.9 -0.3,0.6 0,0.3 -0.3,0.9 0,0.3 -0.3,0.6 -0.3,0.3 0,0.3 -0.3,0.6 -1.2,1.2 -0.6,0 -0.3,0.3 -0.3,0.3 -0.3,0 -0.3,0.3 -0.6,0 -0.3,0 -1.8,0 -0.3,0 -0.3,0"
         id="path3948"
         style="fill:none;stroke:#ffffff;stroke-width:2;stroke-linecap:round;stroke-linejoin:round;stroke-miterlimit:4;stroke-opacity:1;stroke-dasharray:none"
         inkscape:connector-curvature="0" />
      <path
         d="m 366.13572,418.81219 0.9,-0.9 0.6,-0.3 0.6,-0.6 0.9,-0.6 0.6,-0.9 1.2,-0.6 0.9,-0.9 1.2,-0.9 1.2,-0.9 1.2,-0.9 1.2,-0.9 1.5,-0.9 1.2,-0.9 3.3,-2.1 3.3,-2.1 3.3,-1.8 3.3,-1.8 3.6,-1.8 3.9,-1.8 3.6,-1.2 3.6,-1.2 3.9,-1.2 3.9,-0.9 3.6,-0.9 3.6,-0.6 3.6,-0.3 3.3,-0.3 3.6,-0.3 3,0 3.3,0 3.3,0 8.4,0 2.4,0 2.7,-0.6 2.4,-0.6 1.2,-0.6 1.5,-0.9 1.5,-0.9 1.2,-1.2 0.9,-1.2 0.9,-1.5 0.6,-1.5 0.6,-1.5 0,-1.5 0,-1.8 0,-1.5 -0.6,-1.5 -0.6,-1.5 -0.6,-1.2 -1.2,-1.2 -0.9,-1.2 -1.2,-0.9 -1.5,-0.6 -1.2,-0.6 -1.2,-0.3 -1.5,-0.3 -1.5,0 -1.5,0.3 -1.5,0.3 -1.2,0.6 -1.2,0.6 -1.2,0.9 -0.9,0.9 -0.9,1.2 -0.6,0.9 -0.3,1.5 -0.3,1.2 -0.3,1.2 0,1.5 0.3,1.2 0.3,1.2 0.6,1.2 0.3,1.2 0.9,0.9 0.9,0.9 0.9,0.6 1.2,0.6 0.9,0.3 1.2,0.3 1.2,0.3 1.2,0 1.2,-0.3 1.2,-0.3 0.9,-0.6 1.8,-0.9 0.6,-0.9 0.6,-0.9 0.6,-0.9 0.3,-0.9 0.3,-1.2 0,-2.1 0,-0.9 -0.3,-0.9 -0.6,-0.9 -0.3,-0.9 -0.6,-0.6 -0.9,-0.9 -1.2,-0.6 -0.9,-0.3 -1.8,-0.3 -0.9,0 -0.9,0 -0.9,0.3 -1.5,0.9 -0.6,0.3 -0.9,1.2 -0.3,0.9 -0.3,0.6 0,0.9 -0.3,0.6 0.3,0.9 0,0.6 0.3,0.6 0.3,0.6 0.3,0.6 0.9,0.9 1.2,0.6 1.2,0.3 1.2,0 0.6,0 0.6,-0.3"
         id="path3950"
         style="fill:none;stroke:#ffffff;stroke-width:1;stroke-linecap:round;stroke-linejoin:round;stroke-miterlimit:4;stroke-opacity:1;stroke-dasharray:none"
         inkscape:connector-curvature="0" />
      <path
         d="m 291.43572,381.91219 3,0.6 3,0.6 3,0.6 3,0.9 2.7,0.9 2.7,0.6 2.7,0.9 2.7,0.9 2.4,0.9 2.4,0.9 2.4,1.2 2.4,0.6 2.1,1.2 4.2,2.1 1.8,1.2 3.6,2.1 1.8,1.2 1.5,1.2 1.5,1.2 1.2,0.9 1.2,1.2 0.9,1.2 0.9,1.2 0.9,1.2 0.9,1.2 0.6,1.2 0.6,1.2 0.3,1.2 0.3,1.2 0.3,1.2 -1.2,0.6 -1.2,0.3 -1.2,0 -1.5,0.3 -1.2,0 -1.2,0 -1.5,0 -1.5,-0.3 -1.8,-0.3 -1.5,-0.6 -1.8,-0.6 -1.8,-0.6 -1.5,-0.6 -1.8,-0.9 -1.8,-0.9 -1.8,-1.2 -3.9,-2.4 -2.1,-1.2 -1.8,-1.5 -2.1,-1.5 -2.1,-1.5 -2.1,-1.8 -1.8,-1.8 -2.1,-1.8 -4.2,-3.6 -6.3,-6.3 -2.1,-2.4 -2.1,-2.1"
         id="path3952"
         style="fill:#ffffff;stroke:#000000;stroke-width:0.30000001px;stroke-linecap:round;stroke-linejoin:round;stroke-opacity:1;stroke-dasharray:none"
         inkscape:connector-curvature="0" />
      <path
         d="m 423.13572,413.11219 -3,0.9 -3,0.6 -2.7,0.6 -3,0.9 -2.7,0.6 -2.7,0.9 -2.7,0.9 -2.7,0.9 -2.7,0.9 -2.4,0.9 -2.1,0.9 -2.4,1.2 -2.4,0.9 -2.1,1.2 -2.1,0.9 -1.8,0.9 -1.8,1.2 -1.8,1.2 -1.5,1.2 -1.5,0.9 -1.5,1.2 -1.2,1.2 -2.4,2.4 -1.8,2.4 -0.9,1.2 -0.6,1.2 -0.6,1.2 -0.3,1.2 -0.3,1.2 -0.3,1.2 1.2,0.3 1.2,0.3 1.2,0.3 1.5,0.3 2.7,0 1.5,-0.3 1.5,0 1.5,-0.6 1.5,-0.3 1.8,-0.6 3.6,-1.5 1.8,-0.6 1.8,-1.2 1.8,-0.9 1.8,-1.2 1.8,-1.2 2.1,-1.2 2.1,-1.5 1.8,-1.5 2.1,-1.5 2.1,-1.8 2.1,-1.8 2.1,-1.8 2.1,-1.8 2.1,-1.8 2.1,-2.1 2.1,-2.1 2.1,-2.4 1.8,-2.1 2.1,-2.4"
         id="path3954"
         style="fill:#ffffff;stroke:#000000;stroke-width:0.30000001px;stroke-linecap:round;stroke-linejoin:round;stroke-opacity:1;stroke-dasharray:none"
         inkscape:connector-curvature="0" />
      <path
         d="m 377.83572,598.51219 0.6,1.2 0.9,0.9 1.2,0.9 1.8,0.6 1.8,0.9 2.1,0.6 2.7,0.9 2.4,0.6 3,0.6 2.7,0.6 6.3,0.9 12.6,1.8 6,1.2 5.7,0.9 5.4,1.2 2.7,0.6 2.4,0.6 2.1,0.6 2.1,0.6 2.1,0.6 1.5,0.6 1.5,0.6 1.2,0.6 1.2,0.6 0.6,0.3 0.6,0.6 0.6,0.3 1.2,0.6 0.9,0.3 2.4,0.9 3,0.6 3,0.6 3.6,0.6 3.3,0.3 3.6,0 3.3,0.3 3,-0.3 3.3,0 3,0 3.3,0.6 1.8,0.3 1.8,0.3 1.8,0.6 2.1,0.9 2.1,0.9 2.4,0.9 2.4,1.5 2.1,1.2 2.1,1.8 1.8,1.5 1.5,1.8 1.2,1.8 1.2,1.8 0.9,1.5 0.9,1.8 0.6,1.5 0.6,1.5 0.6,1.2 0.3,1.2 0.3,0.9 0,0.6 0,0.3 -1.2,0 -1.2,-0.6 -1.5,-0.6 -0.9,-0.9 -1.2,-1.2 -1.2,-1.5 -2.1,-3 -1.8,-3 -0.9,-1.5 -0.9,-1.2 -0.9,-1.2 -0.9,-0.9 -0.9,-0.6 -0.9,-0.3 -1.5,-0.9 -1.5,-0.9 -3.3,-0.9 -3.6,-0.9 -3.9,-0.3 -4.2,-0.3 -4.8,-0.3 -4.8,-0.3 -2.7,-0.3 -2.7,-0.3 -11.4,-0.9 -11.4,-1.2 7.8,3 8.1,3 1.8,2.1 1.5,1.5 1.5,1.2 1.2,1.2 0.9,0.9 0.9,0.6 1.8,0.9 1.8,0.9 1.2,0.3 1.5,0.6 1.5,0.6 1.8,0.6 2.4,0.9 2.4,1.2 0.6,0.3 0.6,0.9 1.2,0.6 1.2,0.9 1.5,1.2 1.8,0.9 2.4,0.9 2.4,0.6 1.2,0.3 1.2,0.6 2.1,1.5 1.8,1.5 1.2,1.8 0.9,1.8 0.9,1.5 0.6,1.5 0.3,0.6 0,0.6 0.3,0.3 0,0 0,0 -0.3,0 -0.3,-0.3 -0.6,-0.6 -0.6,-0.6 -0.9,-0.6 -1.2,-0.6 -1.2,-0.9 -1.2,-0.9 -1.8,-0.9 -1.8,-0.9 -1.8,-0.6 -2.4,-0.9 -2.4,-0.9 -3.9,-1.2 -3.6,-1.5 -3.6,-1.8 -3.6,-2.1 -6.3,-4.2 -6.3,-3.9 -3,-1.8 -3,-1.5 -2.7,-1.5 -2.7,-1.5 -2.1,-0.9 -2.1,-0.9 -0.9,-0.3 -0.6,-0.3 -0.6,-0.3 -0.3,0 -0.9,0 -1.2,-0.3 -1.5,-0.6 -1.8,-0.9 -1.8,-0.9 -1.8,-1.2 -4.2,-2.4 -1.8,-1.2 -2.4,-1.2 -2.1,-0.9 -2.1,-0.6 -1.8,-0.6 -1.8,-0.3 -1.2,0 -0.6,0.3 -0.3,0.3 -2.1,0 -1.8,-0.3 -1.5,0 -1.2,-0.6 -2.4,-0.9 -2.1,-0.9 -2.4,-0.9 -1.2,0 -1.5,-0.3 -1.8,0.3 -1.8,0.3 -2.4,0.6 -2.7,1.2 0,0 0,0.3 0.6,0.3 0.6,0.6 0.9,0.6 1.2,0.6 1.5,0.6 1.5,0.9 1.5,0.9 2.1,0.9 1.8,0.9 2.1,1.2 4.5,2.1 4.8,2.1 9.9,4.5 4.5,2.1 4.5,1.8 2.1,0.9 2.1,0.9 1.8,0.9 1.5,0.6 1.5,0.6 1.5,0.6 0.9,0.6 0.9,0.3 2.7,1.2 3,1.5 2.7,1.5 2.4,1.5 2.4,1.5 2.4,1.8 1.8,1.2 0.6,0.9 0.6,0.6 1.2,1.2 0.9,1.2 0.6,0.9 0.6,0.9 0.6,0.6 0.3,0.9 -0.3,0.3 -0.3,0.6 -0.6,0 -0.9,-0.3 -0.9,-0.9 -1.5,-0.9 -1.5,-1.2 -1.8,-1.2 -1.8,-1.5 -2.1,-1.5 -1.2,-0.6 -1.2,-0.9 -3,-1.2 -3,-1.2 -3.6,-1.2 -6.6,-2.4 -3.3,-1.5 -2.7,-1.2 -2.4,-1.2 -2.4,-0.9 -2.1,-0.9 -1.8,-0.6 -1.5,-0.3 -1.2,0 -0.6,0.3 -0.3,0.3 0,0 0,1.5 0,0.9 0.3,0.9 0.3,0.6 0.6,0.9 0.6,0.6 1.2,0.6 0.3,1.2 0.3,1.2 0.9,2.1 1.5,2.1 1.2,1.8 1.5,1.8 0.9,1.5 0.3,0.9 0,0.9 0,0.6 -0.3,0.9 -0.3,0 -0.6,-0.3 -0.6,0 -0.6,-0.6 -0.6,-0.6 -0.6,-0.6 -1.5,-1.5 -1.8,-2.1 -1.8,-2.1 -3.6,-4.8 -2.1,-2.7 -2.4,-2.4 -2.7,-2.7 -2.7,-2.4 -2.7,-2.4 -2.7,-2.1 -2.7,-1.5 -2.4,-1.5 -2.4,-1.2 -2.4,-1.2 -5.7,-2.1 -5.4,-1.8 -2.7,-0.9 -2.1,-0.6 -2.7,-0.6 -2.1,-0.3 -1.8,0 -1.2,0 -1.2,0.3 -0.6,0.6 -0.6,0.9 0,1.2 0,0.3 0.3,0.6 0.6,0.9 0.6,0.9 0.9,0.9 0.9,0.9 1.2,1.2 1.2,1.2 1.5,1.2 1.5,1.2 3.6,2.7 3.6,2.7 4.2,2.7 2.1,1.5 1.8,1.5 1.5,1.5 1.5,1.2 1.2,1.5 1.2,1.5 1.2,1.5 0.6,1.2 0.9,1.2 0.6,1.2 0.3,1.2 0.3,0.9 0.3,0.9 0,0.6 0,0.6 0,0.6 -0.3,0 0,0 -0.3,0 -0.6,-0.3 -0.3,-0.3 -0.6,-0.6 -0.6,-0.9 -0.6,-0.6 -1.5,-2.1 -2.1,-2.1 -2.1,-2.7 -2.7,-2.7 -1.8,-1.5 -1.8,-1.5 -1.8,-1.5 -1.5,-0.9 -1.5,-0.9 -1.5,-0.9 -1.5,-0.6 -1.2,-0.6 -1.2,-0.3 -0.9,0 -0.9,-0.3 -0.6,0.3 -0.3,0.3 -0.3,0.3 0,0.3 0,0.6 0.3,0.6 0.3,0.9 0.3,1.8 0,1.8 0,2.1 -0.3,2.1 -0.6,1.5 -0.3,0.6 -0.3,0.3 -0.6,0.3 -0.3,0.3 -0.6,-0.3 -0.3,0 -0.9,-0.6 -0.6,-1.2 -0.9,-1.2 -0.3,-1.5 -0.6,-1.5 -0.3,-1.5 0,-1.5 -0.3,-1.8 -0.3,-1.8 -0.9,-2.4 -0.9,-2.4 -0.9,-2.7 -1.5,-2.4 -2.7,-5.1 -3.6,-6 -3.9,-6 -4.5,3.3 -4.2,3 -1.5,0.9 -0.9,0.9 -1.2,0.9 -0.6,0.6 -0.9,0.9 -0.6,0.6 -0.3,0.6 -0.3,0.6 0,0.6 0,0.9 0,0.6 0.3,0.6 0.3,0.6 0.6,0.9 0.6,0.6 0.6,0.9 0.6,0.6 0.6,0.6 1.2,1.8 1.2,2.4 1.5,2.4 1.8,2.7 1.8,2.4 2.1,2.1 1.2,0.9 1.2,0.9 0.9,0.9 0.9,0.9 1.5,2.1 1.2,2.4 0.6,1.2 0.3,1.2 0,0.9 0,1.2 0,0.6 -0.3,0.6 -0.6,0.6 -0.6,0 -0.9,0 -0.9,-0.3 -1.2,-0.9 -0.9,-1.5 -2.1,-3 -0.9,-1.5 -1.2,-1.5 -1.2,-1.2 -0.6,-0.3 -0.9,-0.3 -0.6,-0.3 -0.6,-0.3 -1.5,-1.2 -1.2,-1.2 -0.9,-1.5 -0.9,-1.5 -1.2,-1.2 -0.9,-0.9 -0.6,-0.3 -0.6,-0.3 -1.2,-0.3 -0.9,0 -0.9,0.3 -0.9,0.3 -0.6,0.6 -0.6,0.6 -0.3,0.6 0,0.9 -0.3,0.9 -0.3,1.2 -0.9,0.9 -0.6,1.2 -1.2,1.2 -1.2,0.9 -1.2,0.9 -1.5,0.9 -2.7,1.2 -0.9,0.6 -1.2,0.3 -0.9,0 -0.6,0.3 -0.3,-0.3 0,0 0,-0.6 0.3,-0.9 0.9,-1.2 0.9,-1.5 0.9,-1.8 1.2,-2.1 2.7,-4.2 1.5,-2.7 1.2,-2.1 0.9,-1.8 0.6,-1.5 0,-1.2 -0.3,-0.9 -0.6,-0.6 -0.9,-0.3 -1.2,0.3 -1.5,0.3 -1.5,0.6 -1.8,0.9 -2.1,0.9 -1.8,0.9 -3.9,2.7 -1.8,1.5 -2.4,1.8 -2.4,1.8 -2.7,2.1 -5.4,4.2 -2.7,2.1 -2.4,1.8 -2.4,1.8 -2.4,1.5 -2.1,1.2 -2.1,1.2 -2.1,0.6 -1.5,0.3 -1.2,0 -1.2,-0.3 -0.3,0 0,-0.6 0,-0.6 0.3,-0.9 0.9,-0.9 0.9,-0.9 1.5,-0.9 1.8,-1.2 2.1,-0.9 1.2,-0.6 1.2,-0.6 0.9,-0.6 0.9,-0.3 1.5,-1.2 0.9,-1.2 1.8,-2.4 0.9,-1.2 0.9,-1.8 0.6,-0.3 0.6,-0.6 0.6,-0.6 0.9,-0.6 2.1,-0.9 2.4,-1.2 2.4,-1.5 2.1,-1.8 0.9,-1.2 0.9,-1.2 0.9,-1.2 0.6,-1.5 0.3,-0.9 0.6,-0.9 1.5,-1.2 1.8,-1.2 1.8,-0.9 3.6,-1.5 1.5,-0.6 1.2,-1.2 1.2,-1.5 0.9,-1.2 0.3,-0.3 0,-0.6 0,-0.3 0,-0.6 -0.3,0 -0.6,-0.3 -0.3,-0.3 -0.6,-0.3 -0.9,0 -0.9,0 -0.9,-0.3 -1.2,0 -1.8,0.3 -2.4,0.3 -2.7,0.6 -2.7,0.6 -3,1.2 -3,0.9 -3,1.2 -2.7,1.5 -2.7,1.5 -2.7,1.8 -2.4,1.8 -2.1,1.8 -1.8,2.1 -1.5,2.1 -0.9,1.8 -0.3,0.9 -0.3,0.9 -0.3,0.9 -0.3,0.9 -0.6,0.9 -0.6,0.9 -1.5,1.8 -2.1,1.8 -2.1,2.1 -2.4,1.8 -2.7,1.5 -2.7,1.5 -2.4,1.5 -2.1,1.8 -1.5,1.5 -1.5,1.5 -0.9,1.2 -0.9,0.9 -0.3,0.3 -0.3,0.3 -0.3,0 -0.3,0 -0.3,-0.6 0,-0.9 0,-1.2 0,-1.5 0.6,-1.5 0.9,-1.5 1.2,-1.5 0.6,-0.9 0.9,-0.6 3.9,-3 3.9,-3 1.8,-1.5 1.5,-1.2 1.2,-1.2 0.9,-1.2 0.3,-0.3 0.3,-0.3 0,-0.3 0,-0.3 -0.3,0 -0.3,0 -0.9,0.3 -1.2,0.6 -1.8,0.6 -2.1,1.2 -2.4,1.5 -2.7,0.6 -2.4,0.9 -2.1,0.9 -1.8,1.5 -1.5,1.2 -1.5,1.5 -2.7,3 -2.7,3 -1.2,1.5 -1.2,1.2 -1.2,0.9 -1.5,0.9 -1.5,0.6 -1.8,0.6 1.2,-2.4 1.2,-2.1 0.9,-2.1 0.9,-2.1 0.9,-1.8 0.9,-1.5 0.9,-1.2 0.6,-1.2 3,-1.2 3,-1.5 6,-3.3 3,-1.5 2.4,-1.5 2.4,-1.8 0.9,-0.6 0.9,-0.6 1.2,-1.2 1.2,-0.9 0.9,-0.9 0.6,-0.6 0.6,-0.6 0.3,-0.6 0,-0.3 0,-0.3 -0.3,0 -0.9,0 -0.9,0 -1.2,0 -1.2,0.3 -1.8,0.3 -2.1,0.3 -2.4,0.3 -5.7,0.9 -2.7,0.6 -2.7,0.6 -2.4,0.6 -2.4,0.6 -1.8,0.6 -0.9,0.3 -0.6,0.3 -1.5,0.6 -1.5,0.6 -1.8,1.2 -1.8,1.2 -3.9,2.4 -3.9,3 -0.9,0.6 -0.9,1.2 -1.5,0.9 -1.2,1.5 -3,2.7 -3.3,3 -3.3,2.7 -1.5,1.2 -1.5,1.2 -1.2,0.9 -1.2,0.6 -1.2,0.3 -0.9,0.3 -0.3,-0.3 0,-0.3 -0.3,-0.3 0.3,-0.3 0.3,-0.9 0.9,-1.2 1.2,-1.2 1.5,-1.2 3.3,-2.7 3.6,-3 1.5,-1.2 1.5,-1.5 1.2,-1.2 0.9,-1.2 0.3,-0.9 0,-0.6 0,-0.3 2.1,-1.2 2.1,-1.2 1.8,-0.9 1.5,-0.9 1.5,-0.9 1.2,-0.6 0.9,-0.6 0.9,-0.6 0.6,-0.6 0.6,-0.3 0.3,-0.6 0,0 0,-0.3 -0.3,-0.3 -0.3,0 -0.3,0 -0.6,0 -0.6,0 -1.8,0 -1.8,0.6 -2.4,0.6 -2.7,0.6 -2.7,0.9 -5.7,1.8 -1.2,0.3 -1.5,0.6 -1.8,0.9 -1.8,0.6 -4.2,1.8 -4.5,1.8 -2.1,0.9 -2.1,0.6 -1.8,0.9 -1.8,0.6 -1.2,0.3 -1.2,0.3 -0.6,0 0,0 -0.3,0 0.3,-0.6 0.6,-0.6 1.2,-0.6 1.2,-0.9 1.5,-0.9 1.8,-0.9 4.2,-2.1 3.9,-2.1 2.1,-0.9 1.8,-0.9 1.8,-0.9 1.5,-0.9 1.2,-0.6 0.9,-0.3 0.6,-0.3 0.9,-0.6 0.9,-0.3 1.2,-0.6 2.7,-0.9 3,-1.2 3,-0.9 3.6,-0.9 3.6,-0.9 3.6,-0.3 1.8,-0.3 2.1,-0.3 2.4,-0.3 2.7,-0.6 2.7,-0.3 3,-0.6 6.3,-1.5 6.3,-1.5 6.6,-1.8 6.6,-1.8 6.3,-1.8 6.3,-1.8 6,-1.8 5.7,-1.5 2.7,-0.9 2.4,-0.6 2.4,-0.6 2.4,-0.6 2.1,-0.3 1.8,-0.3 1.5,-0.3 1.5,-0.3 1.2,-0.3 0.9,0 1.8,0 1.8,0 2.1,-0.3 2.1,-0.6 2.1,-0.6 1.8,-1.2 1.5,-1.2 0.3,-0.9 0.6,-0.9 1.5,-5.4 1.5,-6 0.9,-6.3 0.9,-6.6 0.6,-6.9 0.6,-6.6 0.6,-13.8 0.6,-21.3 0,-10.8 0,-5.7 0,-5.7 0.3,-6 0,-6.3 0,-6.3 0,-6.6 0,-7.2 0,-7.2 0,-7.8 0,-7.8 14.4,0 14.7,0 0,15.3 0,15.3 0,7.2 0,7.5 0,6.9 0,6.9 0,6.6 0,6.3 0,6 0,6 0,5.1 0,5.1 0,4.5 0,2.1 0,2.1 0.3,7.5 0,3.6 0.3,3.6 0.3,3.3 0.6,3 0.3,3.3 0.6,2.7 0.3,2.7 0.6,2.4 0.6,2.4 0.3,2.1 0.6,1.8 0.3,1.5 0.3,1.5 0.3,0.9"
         id="path3956"
         style="fill:#ffffff;stroke:#000000;stroke-width:0.30000001px;stroke-linecap:round;stroke-linejoin:round;stroke-opacity:1;stroke-dasharray:none"
         inkscape:connector-curvature="0" />
      <path
         d="m 313.63572,504.31219 -3.9,0 -3.9,0 -1.2,2.4 -1.2,2.7 -2.4,5.7 -1.2,3 -0.9,2.7 -0.3,2.7 -0.3,2.1 0,1.5 0.3,1.5 0.3,1.2 0.3,1.2 1.2,2.4 1.5,2.1 2.1,1.8 2.1,1.2 1.2,0.6 1.2,0.3 1.2,0 1.2,0.3 1.2,-0.3 1.5,0 1.2,-0.3 0.9,-0.6 2.4,-1.2 1.8,-1.8 1.5,-2.1 1.2,-2.4 0.3,-1.2 0.3,-1.2 0.3,-1.5 0,-1.5 0,-0.9 -0.3,-1.2 -0.6,-2.4 -1.2,-3 -1.2,-3 -1.8,-2.7 -1.5,-3 -1.8,-2.7 -1.5,-2.4"
         id="path3958"
         style="fill:#00ffff;stroke:#000000;stroke-width:0.30000001px;stroke-linecap:round;stroke-linejoin:round;stroke-opacity:1;stroke-dasharray:none"
         inkscape:connector-curvature="0" />
      <path
         d="m 274.03572,442.21219 -1.2,1.5 -1.5,1.2 0,3 1.5,0.3 1.2,0.6 1.2,0.6 1.2,0.6 0.6,0.6 0.6,0.9 0.3,0.9 0.3,0.9 0,0.3 0,0.3 3.3,0.9 3.3,0.9 5.7,1.8 4.8,2.1 4.5,2.1 4.2,2.4 3.9,2.4 3.3,3 3,3 2.4,3 2.1,3.3 1.8,3.6 1.2,3.6 1.2,3.3 0.6,3.3 0.6,3.3 0.3,2.7 0,2.4 0,0.6 -0.3,0.3 -0.6,0.6 -0.6,0.3 -0.6,0.3 -0.9,0.3 -1.8,0.3 -2.4,0.3 -2.4,0.3 -5.7,0 -5.4,0 -2.4,-0.3 -2.4,-0.3 -1.8,0 -0.9,0 -0.6,-0.3 -0.6,0 -0.3,0 -0.3,0 0,0 -0.3,-2.1 -0.3,-1.8 -0.3,-1.8 -0.6,-1.8 -0.6,-1.5 -0.9,-1.5 -0.9,-1.5 -0.9,-1.5 -1.5,-1.8 -1.8,-1.5 -1.5,-1.5 -2.1,-1.2 -2.1,-1.2 -2.1,-1.2 -2.1,-0.9 -2.4,-0.6 -2.4,-0.9 -2.4,-0.3 -2.1,-0.3 -1.8,-0.3 -1.8,0.3 -1.8,0 -1.5,0.6 -1.5,0.3 -1.2,0.9 -1.2,0.6 -0.9,0.9 -0.9,0.9 -0.6,0.9 -0.9,1.2 -0.3,1.2 -0.3,1.2 -0.3,1.2 -0.3,1.2 0.3,1.2 0,1.5 0.6,1.2 0.3,1.2 0.9,1.2 0.6,1.2 0.9,0.6 0.9,1.2 1.5,1.2 1.8,1.5 2.4,1.5 2.4,2.1 3,2.1 3,2.1 2.7,1.8 2.4,1.8 2.4,1.8 2.1,1.8 2.1,1.5 2.1,1.8 1.8,1.5 1.8,1.5 1.5,1.5 1.5,1.5 1.5,1.5 1.2,1.5 1.2,1.2 1.2,1.5 0.9,1.2 0.6,1.2 2.1,3.6 1.5,3.6 1.2,3.6 0.6,3.6 0.6,3.6 0,3.6 -0.3,3.9 -0.9,3.6 -1.5,4.8 -1.5,4.5 -2.4,4.2 -2.4,3.6 -3,3.6 -3.3,3.3 -3.9,3 -4.2,2.7 -2.1,1.2 -2.4,1.2 -2.1,0.9 -2.4,0.6 -2.7,0.9 -2.4,0.3 -2.4,0.6 -2.7,0 -2.7,0.3 -3,0 -2.7,-0.3 -3,-0.3 -2.7,-0.6 -3,-0.6 -3.3,-0.6 -3,-0.9 -6,-2.1 -5.7,-2.1 -5.1,-2.4 -4.8,-2.7 -4.5,-3 -3.9,-3.3 -3.3,-3.3 -3,-3.6 -2.7,-3.6 -2.1,-3.6 -1.8,-3.6 -1.5,-3.9 -0.9,-3.9 -0.9,-4.2 -0.3,-4.5 -0.3,-2.4 0,-2.7 31.2,-0.3 0.3,3 0.3,2.7 0.6,2.7 0.9,2.4 0.9,2.4 0.9,2.1 0.9,1.8 1.2,1.8 1.5,1.5 1.2,1.5 1.8,1.5 1.8,1.2 2.1,1.2 2.1,0.9 2.4,0.9 2.4,0.9 2.7,0.6 2.4,0.6 2.7,0.3 2.4,0 2.1,-0.3 2.1,-0.3 2.1,-0.6 2.1,-0.9 1.2,-0.6 1.2,-0.9 1.2,-0.6 0.9,-1.2 0.6,-0.9 0.9,-1.2 0.3,-1.2 0.6,-1.5 0.3,-1.8 0,-1.8 -0.3,-1.8 -0.9,-1.8 -0.3,-0.9 -0.9,-1.2 -1.2,-1.2 -1.2,-1.2 -1.5,-1.5 -1.8,-1.5 -2.1,-1.8 -2.1,-1.5 -3.3,-2.7 -3,-2.1 -2.7,-2.4 -2.7,-2.1 -2.4,-2.1 -2.4,-1.8 -2.4,-2.1 -1.8,-1.8 -1.8,-1.5 -1.8,-1.8 -1.5,-1.5 -1.5,-1.5 -1.2,-1.2 -0.9,-1.2 -0.9,-1.2 -0.9,-1.2 -1.8,-3.3 -1.5,-3.6 -1.2,-3.6 -0.6,-3.6 -0.3,-3.6 0,-3.9 0.3,-3.9 0.9,-3.9 1.2,-4.2 1.5,-3.6 1.5,-3.3 2.1,-3.3 2.1,-3 2.7,-2.7 3,-2.7 3,-2.4 2.1,-1.2 2.1,-1.2 2.1,-0.9 2.4,-0.9 2.1,-0.9 2.4,-0.6 2.4,-0.3 2.4,-0.6 0.3,-0.9 0.6,-0.6 0.6,-0.9 0.9,-0.6 1.2,-0.6 1.2,-0.6 1.2,-0.3 1.5,-0.3 0,-3 -1.5,-1.2 -1.2,-1.5 -3,0.6 -3,0.9 -6.6,1.2 -3,0.3 -1.5,0.3 -1.2,0 -1.2,0.3 -0.9,0 -0.9,0 -0.6,0 -1.5,0 -1.2,-0.6 -1.5,-0.6 -0.9,-0.9 -0.9,-1.2 -0.6,-1.2 -0.6,-1.2 0,-1.5 0,-1.5 0.6,-1.5 0.6,-1.2 0.9,-1.2 0.9,-0.9 1.5,-0.6 1.2,-0.3 1.5,-0.3 0.6,0 0.9,0 0.9,0.3 1.2,0 1.2,0 1.5,0.3 3,0.3 6.6,1.2 3.3,0.9 3,0.6 1.2,-1.5 1.5,-1.2 1.5,-0.6 1.2,-0.3 0.9,0 0.9,0 1.2,0.3 0.9,0.3 0.6,0.6 1.8,0.9 0.9,1.8 3,-0.9 3.3,-0.9 6.6,-1.2 3.3,-0.3 1.2,-0.3 1.5,-0.3 0.9,0 1.2,0 0.6,0 0.9,-0.3 1.5,0.3 1.2,0.3 1.2,0.9 1.2,0.9 0.9,0.9 0.6,1.5 0.6,1.2 0,1.5 0,1.5 -0.6,1.5 -0.6,1.2 -0.9,1.2 -1.2,0.9 -1.2,0.6 -1.2,0.3 -1.5,0.3 -0.9,0 -0.6,0 -1.2,-0.3 -0.9,0 -1.5,-0.3 -1.2,0 -3.3,-0.6 -6.6,-0.9 -3.3,-0.9 -3,-0.6"
         id="path3960"
         style="fill:#ffffff;stroke:#000000;stroke-width:0.30000001px;stroke-linecap:round;stroke-linejoin:round;stroke-opacity:1;stroke-dasharray:none"
         inkscape:connector-curvature="0" />
      <path
         d="m 407.23572,597.91219 0,-144.3 46.8,0 3.3,0 3,0 3,0 3,0 2.7,0 2.4,0.3 2.4,0 2.4,0 1.8,0.3 2.1,0 1.8,0.3 1.8,0.3 1.5,0 1.2,0.3 1.2,0.3 1.2,0.3 3,0.9 3,1.2 2.7,1.2 2.7,1.8 2.4,1.8 2.4,2.1 2.4,2.4 2.1,2.7 2.1,2.7 1.5,3 1.5,3.3 1.2,3.3 0.9,3.6 0.6,3.9 0.6,4.2 0,4.2 0,3 -0.3,3.3 -0.3,3 -0.6,2.7 -0.6,2.7 -0.9,2.7 -0.9,2.4 -1.2,2.4 -1.2,2.1 -1.5,2.1 -1.2,2.1 -1.5,1.8 -1.8,1.8 -1.5,1.5 -1.8,1.5 -1.8,1.5 -3.6,2.1 -3.9,2.1 -3.9,1.5 -3.6,0.9 -3,0.6 -3,0.3 -3.3,0.6 -3.6,0.3 -3.9,0 -4.2,0.3 -4.5,0 -4.8,0 -18.9,0 0,54.6 -29.4,0 m 29.4,-120 0,41.1 15.9,0 3.9,-0.3 3.9,0 3.3,-0.3 3.3,0 2.7,-0.3 2.1,-0.6 2.1,-0.3 1.8,-0.6 2.7,-1.2 2.4,-1.8 2.1,-1.8 1.8,-2.4 1.5,-2.4 0.9,-2.7 0.6,-3 0.3,-3 0,-2.1 -0.3,-1.8 -0.3,-1.8 -0.6,-1.5 -0.6,-1.5 -0.9,-1.5 -0.9,-1.5 -1.2,-1.2 -1.2,-1.5 -1.2,-0.9 -1.2,-0.9 -1.5,-0.9 -1.5,-0.9 -1.5,-0.6 -1.8,-0.6 -1.8,-0.3 -1.5,-0.3 -1.5,0 -2.4,-0.3 -2.4,0 -2.7,-0.3 -3,0 -3.6,0 -3.9,0 -13.8,0"
         id="path3964"
         style="fill:#ffffff;stroke:#000000;stroke-width:0.30000001px;stroke-linecap:round;stroke-linejoin:round;stroke-opacity:1;stroke-dasharray:none"
         inkscape:connector-curvature="0" />
      <path
         d="m 295.63572,347.11219 2.1,2.4 2.1,2.1 1.8,2.4 4.2,4.2 4.2,3.6 2.1,1.8 2.1,1.8 1.8,1.8 2.1,1.5 2.1,1.5 2.1,1.2 1.8,1.5 3.9,2.4 1.8,0.9 1.8,0.9 1.8,0.9 1.8,0.9 1.8,0.6 1.5,0.6 1.8,0.3 1.5,0.3 1.5,0.3 1.5,0.3 2.7,0 1.2,-0.3 1.5,-0.3 1.2,-0.3 0.9,-0.3 0,-1.2 -0.3,-1.2 -0.6,-1.2 -0.6,-1.2 -0.6,-1.2 -0.6,-1.2 -1.8,-2.4 -1.2,-1.2 -1.2,-1.2 -1.2,-1.2 -1.5,-1.2 -1.5,-0.9 -1.5,-1.2 -1.8,-1.2 -1.8,-1.2 -2.1,-0.9 -4.2,-2.1 -2.1,-0.9 -2.1,-1.2 -2.7,-0.9 -2.4,-0.9 -2.4,-0.9 -2.7,-0.9 -2.7,-0.9 -2.7,-0.9 -2.7,-0.6 -3,-0.9 -2.7,-0.6 -3,-0.6 -3,-0.9"
         id="path3966"
         style="fill:#ffffff;stroke:#000000;stroke-width:0.30000001px;stroke-linecap:round;stroke-linejoin:round;stroke-opacity:1;stroke-dasharray:none"
         inkscape:connector-curvature="0" />
    </g>
  </g>
</svg>
